<?xml version="1.0" standalone="no"?>
<!DOCTYPE svg PUBLIC "-//W3C//DTD SVG 20010904//EN"
 "http://www.w3.org/TR/2001/REC-SVG-20010904/DTD/svg10.dtd">
<svg version="1.0" xmlns="http://www.w3.org/2000/svg"
 width="1024.000000pt" height="1024.000000pt" viewBox="0 0 1024.000000 1024.000000"
 preserveAspectRatio="xMidYMid meet">
<metadata>
Created by potrace 1.14, written by Peter Selinger 2001-2017
</metadata>
<g transform="translate(0.000000,1024.000000) scale(0.100000,-0.100000)"
fill="#000000" stroke="none">
<path d="M0 5120 l0 -5120 5120 0 5120 0 -2 5118 -3 5117 -5117 3 -5118 2 0
-5120z m6883 2560 c63 -10 143 -29 178 -41 160 -55 341 -168 459 -288 186
-187 292 -382 357 -656 l28 -120 0 -1455 c0 -1171 -3 -1470 -13 -1530 -40
-224 -103 -393 -201 -542 -75 -113 -212 -261 -306 -329 -115 -83 -343 -181
-508 -216 -76 -16 -194 -18 -1642 -21 -1552 -3 -1561 -3 -1658 18 -142 31
-238 65 -359 128 -186 97 -319 212 -436 377 -107 151 -170 308 -214 529 -22
111 -22 114 -26 1516 -2 976 0 1438 8 1513 34 334 215 675 467 877 171 138
351 214 603 253 14 2 728 5 1587 6 1509 1 1565 0 1676 -19z"/>
<path d="M3785 7189 c-214 -15 -364 -86 -512 -242 -75 -79 -102 -123 -153
-252 -60 -152 -59 -113 -59 -1589 -1 -1394 0 -1419 41 -1561 53 -183 185 -361
328 -442 69 -40 203 -89 261 -97 24 -4 714 -8 1533 -10 1621 -4 1537 -7 1695
54 207 80 365 277 438 545 l27 100 -1 1394 c-2 978 -6 1412 -14 1450 -39 198
-104 328 -223 446 -86 85 -160 129 -301 176 l-70 24 -955 3 c-525 1 -1178 3
-1450 5 -272 1 -536 -1 -585 -4z m509 -726 c67 -71 160 -170 207 -222 371
-413 708 -771 726 -771 7 0 13 5 13 11 0 6 42 55 93 108 50 53 148 158 216
232 68 74 172 184 230 244 117 120 255 274 340 379 30 37 75 82 101 101 l48
35 278 0 279 0 0 -1498 0 -1497 -312 -1 -313 -1 0 948 0 947 -103 -107 c-94
-98 -191 -206 -357 -401 -88 -103 -325 -363 -434 -477 -87 -90 -90 -93 -109
-76 -11 10 -99 108 -196 217 -97 110 -277 309 -401 443 -124 134 -252 274
-284 311 -33 37 -63 68 -66 70 -13 5 -22 -544 -18 -1208 l3 -655 -302 -3 -303
-2 0 1495 0 1495 208 3 c114 1 235 3 270 5 l63 2 123 -127z"/>
</g>
</svg>
